<mxfile host="app.diagrams.net" modified="2023-03-27T10:32:35.630Z" agent="Mozilla/5.0 (Windows NT 10.0; Win64; x64) AppleWebKit/537.36 (KHTML, like Gecko) Chrome/111.0.0.0 Safari/537.36" version="21.1.0" etag="UiM29FRSnV-FJjGqJbjm" type="github">
  <diagram name="Page-1" id="bX5Nv4EXqvbN6E7egdSF">
    <mxGraphModel>
      <root>
        <mxCell id="0" />
        <mxCell id="1" parent="0" />
      </root>
    </mxGraphModel>
  </diagram>
</mxfile>
